<?xml version="1.0" encoding="UTF-8" standalone="no"?>
<!DOCTYPE svg PUBLIC "-//W3C//DTD SVG 1.1//EN" "http://www.w3.org/Graphics/SVG/1.1/DTD/svg11.dtd">
<svg width="100%" height="100%" viewBox="0 0 4500 4500" version="1.1" xmlns="http://www.w3.org/2000/svg" xmlns:xlink="http://www.w3.org/1999/xlink" xml:space="preserve" xmlns:serif="http://www.serif.com/" style="fill-rule:evenodd;clip-rule:evenodd;stroke-linejoin:round;stroke-miterlimit:2;">
    <rect x="0" y="0" width="4500" height="4500" style="fill:white;"/>
    <g transform="matrix(0.833268,0,0,0.833268,383.787,272.909)">
        <path d="M600.732,2508.14L1603.04,3510.44C1644.43,3551.84 1711.56,3551.84 1752.95,3510.44L3878.53,1384.87C3919.9,1343.5 3919.9,1276.32 3878.53,1234.95C3837.16,1193.58 3769.98,1193.58 3728.61,1234.95C3728.61,1234.95 2055.3,2908.26 1678,3285.57C1445.27,3052.84 750.65,2358.22 750.65,2358.22C709.279,2316.85 642.103,2316.85 600.732,2358.22C559.361,2399.59 559.361,2466.77 600.732,2508.14Z" style="fill:rgb(125,190,250);"/>
    </g>
    <g transform="matrix(0.833268,0,0,0.833268,383.787,272.909)">
        <path d="M514.732,2594.14L1517.04,3596.44C1605.93,3685.34 1750.06,3685.34 1838.95,3596.44C1838.95,3596.44 3964.53,1470.87 3964.53,1470.87C4053.37,1382.03 4053.37,1237.78 3964.53,1148.95C3875.7,1060.11 3731.45,1060.11 3642.61,1148.95C3642.61,1148.95 1678,3113.57 1678,3113.57C1678,3113.57 836.651,2272.22 836.651,2272.22C747.815,2183.39 603.568,2183.39 514.732,2272.22C425.896,2361.06 425.896,2505.3 514.732,2594.14ZM1684.39,3407.01C1680.13,3407.23 1675.86,3407.24 1671.6,3407.01L1678,3413.4L1684.39,3407.01Z" style="fill:rgb(125,190,250);"/>
    </g>
</svg>
