<?xml version="1.0" encoding="UTF-8" standalone="no"?>
<!DOCTYPE svg PUBLIC "-//W3C//DTD SVG 1.1//EN" "http://www.w3.org/Graphics/SVG/1.1/DTD/svg11.dtd">
<svg width="100%" height="100%" viewBox="0 0 24 24" version="1.1" xmlns="http://www.w3.org/2000/svg" xmlns:xlink="http://www.w3.org/1999/xlink" xml:space="preserve" xmlns:serif="http://www.serif.com/" style="fill-rule:evenodd;clip-rule:evenodd;stroke-linejoin:round;stroke-miterlimit:2;">
    <path d="M22.108,15.032C22.027,15.011 21.944,15 21.86,15C21.404,15 21.004,15.312 20.893,15.754C20.551,17.073 19.352,18 17.99,18C16.345,18 14.992,16.647 14.992,15.002L14.992,14L21.992,14C22.54,14 22.992,13.549 22.992,13.001C22.992,13.001 22.992,13.001 22.992,13C22.992,10.258 20.735,8 17.992,8C15.249,8 12.992,10.258 12.992,13L12.992,15.002C12.992,17.744 15.248,20 17.99,20C20.264,20 22.265,18.449 22.831,16.247C22.852,16.166 22.862,16.083 22.862,16C22.862,15.544 22.55,15.144 22.108,15.032ZM17.992,10C18.785,10.001 19.546,10.314 20.11,10.873C20.423,11.193 20.661,11.578 20.809,12L15.176,12C15.596,10.808 16.728,10.004 17.992,10ZM15.992,7L19.992,7C20.54,7 20.992,6.549 20.992,6C20.992,5.452 20.54,5 19.992,5L15.992,5C15.443,5 14.992,5.452 14.992,6C14.992,6.549 15.443,7 15.992,7ZM9.91,11.718C10.605,10.979 10.992,10.001 10.992,8.987C10.992,6.8 9.192,5 7.005,5C7.001,5 6.996,5 6.992,5L1.991,5C1.443,5 0.992,5.452 0.992,6L0.992,19.001C0.992,19.549 1.443,20 1.991,20L7.492,20C7.494,20 7.497,20 7.5,20C9.964,20 11.992,17.973 11.992,15.508C11.992,13.973 11.205,12.541 9.91,11.718ZM2.992,7L6.992,7C8.089,7 8.992,7.903 8.992,9C8.992,10.098 8.089,11 6.992,11L2.992,11L2.992,7ZM7.492,18L2.992,18L2.992,13L7.492,13C8.863,13 9.992,14.129 9.992,15.5C9.992,16.872 8.863,18 7.492,18Z" style="fill:white;fill-rule:nonzero;"/>
</svg>
