<?xml version="1.0" encoding="UTF-8" standalone="no"?>
<!DOCTYPE svg PUBLIC "-//W3C//DTD SVG 1.1//EN" "http://www.w3.org/Graphics/SVG/1.1/DTD/svg11.dtd">
<svg width="100%" height="100%" viewBox="0 0 24 24" version="1.1" xmlns="http://www.w3.org/2000/svg" xmlns:xlink="http://www.w3.org/1999/xlink" xml:space="preserve" xmlns:serif="http://www.serif.com/" style="fill-rule:evenodd;clip-rule:evenodd;stroke-linejoin:round;stroke-miterlimit:2;">
    <path d="M18.83,9.44C18.644,9.165 18.332,8.999 18,9L15,9L15,7L17.2,7C17.749,7 18.2,6.549 18.2,6L18.2,2C18.2,1.451 17.749,1 17.2,1L14,1C10.818,1 8.2,3.618 8.2,6.8L8.2,9L6,9C5.451,9 5,9.451 5,10L5,14C5,14.549 5.451,15 6,15L8.2,15L8.2,22C8.2,22.549 8.651,23 9.2,23L14,23C14.549,23 15,22.549 15,22L15,15L16.4,15C16.809,15 17.179,14.75 17.33,14.37L18.93,10.37C19.053,10.063 19.015,9.714 18.83,9.44ZM15.72,13L14,13C13.451,13 13,13.451 13,14L13,21L10.2,21L10.2,14C10.2,13.451 9.749,13 9.2,13L7,13L7,11L9.2,11C9.749,11 10.2,10.549 10.2,10L10.2,6.8C10.205,4.717 11.917,3.005 14,3L16.2,3L16.2,5L15.4,5C14.716,4.9 14.02,5.089 13.48,5.52C13.152,5.863 12.979,6.326 13,6.8L13,10C13,10.549 13.451,11 14,11L16.52,11L15.72,13Z" style="fill:white;fill-rule:nonzero;"/>
</svg>
