<?xml version="1.0" encoding="UTF-8" standalone="no"?>
<!DOCTYPE svg PUBLIC "-//W3C//DTD SVG 1.1//EN" "http://www.w3.org/Graphics/SVG/1.1/DTD/svg11.dtd">
<svg width="100%" height="100%" viewBox="0 0 24 24" version="1.1" xmlns="http://www.w3.org/2000/svg" xmlns:xlink="http://www.w3.org/1999/xlink" xml:space="preserve" xmlns:serif="http://www.serif.com/" style="fill-rule:evenodd;clip-rule:evenodd;stroke-linejoin:round;stroke-miterlimit:2;">
    <path d="M10.07,20.503C10.07,19.954 9.619,19.503 9.07,19.503C9.009,19.503 8.949,19.509 8.889,19.52C7.58,19.76 5.927,19.796 5.488,18.562C5.105,17.606 4.47,16.771 3.651,16.147C3.592,16.115 3.537,16.078 3.484,16.037C3.338,15.651 2.967,15.393 2.554,15.392L2.549,15.392C2.002,15.391 1.551,15.84 1.549,16.387C1.545,17.202 2.36,17.725 2.69,17.901C3.08,18.293 3.394,18.754 3.614,19.261C3.979,20.284 5.037,21.837 8.08,21.637C8.081,21.672 8.082,21.705 8.083,21.735L8.087,22.003C8.087,22.552 8.538,23.003 9.087,23.003C9.635,23.003 10.087,22.552 10.087,22.003L10.082,21.685C10.077,21.495 10.07,21.221 10.07,20.503ZM20.737,5.377C20.769,5.252 20.8,5.113 20.828,4.957C20.989,3.843 20.848,2.705 20.419,1.664C20.31,1.389 20.084,1.177 19.804,1.084C19.448,0.964 18.133,0.727 15.62,2.334C13.53,1.842 11.355,1.842 9.266,2.334C6.762,0.751 5.455,0.966 5.102,1.079C4.814,1.168 4.582,1.383 4.471,1.663C4.033,2.724 3.894,3.885 4.067,5.02C4.092,5.147 4.118,5.266 4.146,5.374C3.317,6.477 2.876,7.824 2.89,9.203C2.887,9.511 2.902,9.819 2.933,10.125C3.267,14.728 6.267,16.109 8.357,16.584C8.313,16.709 8.274,16.843 8.239,16.984C8.22,17.062 8.21,17.141 8.21,17.221C8.21,17.77 8.662,18.221 9.211,18.221C9.668,18.221 10.07,17.907 10.181,17.463C10.245,17.13 10.408,16.824 10.649,16.585C10.866,16.395 10.99,16.121 10.99,15.833C10.99,15.327 10.606,14.897 10.103,14.84C6.649,14.445 5.149,13.038 4.924,9.941C4.899,9.696 4.888,9.45 4.89,9.203C4.874,8.22 5.199,7.261 5.81,6.49C5.871,6.41 5.936,6.333 6.005,6.259C6.255,5.98 6.327,5.584 6.193,5.234C6.126,5.054 6.074,4.868 6.038,4.679C5.957,4.14 5.983,3.591 6.117,3.063C6.986,3.309 7.804,3.709 8.532,4.243C8.775,4.405 9.077,4.454 9.359,4.376C11.38,3.828 13.511,3.828 15.532,4.377C15.816,4.455 16.12,4.404 16.363,4.239C17.087,3.702 17.902,3.299 18.768,3.049C18.901,3.564 18.93,4.1 18.855,4.627C18.819,4.834 18.763,5.038 18.686,5.234C18.553,5.584 18.625,5.98 18.874,6.259C18.952,6.346 19.029,6.439 19.098,6.527C19.704,7.285 20.024,8.233 20,9.203C20.002,9.463 19.989,9.722 19.962,9.98C19.742,13.036 18.237,14.444 14.767,14.84C14.264,14.897 13.88,15.327 13.88,15.833C13.88,16.122 14.004,16.396 14.221,16.586C14.47,16.831 14.633,17.149 14.687,17.494C14.755,17.762 14.786,18.037 14.78,18.313L14.78,20.647C14.77,21.295 14.77,21.78 14.77,22.003C14.77,22.551 15.221,23.003 15.77,23.003C16.319,23.003 16.77,22.551 16.77,22.003C16.77,21.786 16.77,21.311 16.78,20.663L16.78,18.313C16.788,17.871 16.736,17.43 16.625,17.002C16.593,16.861 16.555,16.723 16.509,16.586C19.637,16.066 21.954,13.333 21.954,10.162C21.987,9.844 22.002,9.523 22,9.203C22.022,7.822 21.577,6.473 20.737,5.377L20.737,5.377Z" style="fill:white;fill-rule:nonzero;"/>
</svg>
