<?xml version="1.0" encoding="UTF-8" standalone="no"?>
<!DOCTYPE svg PUBLIC "-//W3C//DTD SVG 1.1//EN" "http://www.w3.org/Graphics/SVG/1.1/DTD/svg11.dtd">
<svg width="100%" height="100%" viewBox="0 0 24 24" version="1.1" xmlns="http://www.w3.org/2000/svg" xmlns:xlink="http://www.w3.org/1999/xlink" xml:space="preserve" xmlns:serif="http://www.serif.com/" style="fill-rule:evenodd;clip-rule:evenodd;stroke-linejoin:round;stroke-miterlimit:2;">
    <path d="M12,7C9.257,7 7,9.257 7,12C7,14.743 9.257,17 12,17C14.743,17 17,14.743 17,12C17,9.257 14.743,7 12,7ZM12,15C10.354,15 9,13.646 9,12C9,10.354 10.354,9 12,9C13.646,9 15,10.354 15,12C15,13.646 13.646,15 12,15ZM17,6C16.451,6 16,6.451 16,7C16,7.549 16.451,8 17,8C17.549,8 18,7.549 18,7C18,6.451 17.549,6 17,6ZM21.94,8.24C21.923,7.385 21.761,6.54 21.46,5.74C20.896,4.269 19.731,3.104 18.26,2.54C17.46,2.239 16.615,2.077 15.76,2.06C14.79,2 14.47,2 12,2C9.53,2 9.21,2 8.24,2.06C7.385,2.077 6.54,2.239 5.74,2.54C4.269,3.104 3.104,4.269 2.54,5.74C2.239,6.54 2.077,7.385 2.06,8.24C2,9.22 2,9.54 2,12C2,14.46 2,14.78 2.06,15.76C2.077,16.615 2.239,17.46 2.54,18.26C3.104,19.731 4.269,20.896 5.74,21.46C6.54,21.761 7.385,21.923 8.24,21.94C9.24,21.94 9.53,22 12,22C14.47,22 14.79,22 15.76,21.94C16.615,21.923 17.46,21.761 18.26,21.46C19.731,20.896 20.896,19.731 21.46,18.26C21.761,17.46 21.923,16.615 21.94,15.76C21.94,14.76 22,14.46 22,12C22,9.54 22,9.22 21.94,8.24ZM19.94,15.67C19.922,16.305 19.804,16.932 19.59,17.53C19.413,18.002 19.133,18.429 18.77,18.78C18.421,19.143 17.994,19.42 17.52,19.59C16.921,19.813 16.289,19.935 15.65,19.95C14.71,19.95 14.42,20 11.99,20L8.34,20C7.702,19.984 7.071,19.865 6.47,19.65C5.998,19.473 5.571,19.193 5.22,18.83C4.857,18.481 4.58,18.054 4.41,17.58C4.188,16.984 4.066,16.356 4.05,15.72L4.05,8.38C4.067,7.741 4.189,7.11 4.41,6.51C4.583,6.041 4.86,5.617 5.22,5.27C5.569,4.907 5.996,4.63 6.47,4.46C7.069,4.237 7.701,4.115 8.34,4.1C9.28,4 9.57,4 12,4L15.66,4C16.302,4.016 16.937,4.138 17.54,4.36C18.009,4.533 18.433,4.81 18.78,5.17C19.143,5.519 19.42,5.946 19.59,6.42C19.835,7.029 19.973,7.675 20,8.33C20,9.33 20.05,9.58 20.05,12C20.05,14.42 20,14.71 20,15.67L19.94,15.67Z" style="fill:white;fill-rule:nonzero;"/>
</svg>
