<?xml version="1.0" encoding="UTF-8" standalone="no"?>
<!DOCTYPE svg PUBLIC "-//W3C//DTD SVG 1.1//EN" "http://www.w3.org/Graphics/SVG/1.1/DTD/svg11.dtd">
<svg width="100%" height="100%" viewBox="0 0 24 24" version="1.1" xmlns="http://www.w3.org/2000/svg" xmlns:xlink="http://www.w3.org/1999/xlink" xml:space="preserve" xmlns:serif="http://www.serif.com/" style="fill-rule:evenodd;clip-rule:evenodd;stroke-linejoin:round;stroke-miterlimit:2;">
    <path d="M12,19L7,19C6.451,19 6,19.451 6,20C6,20.549 6.451,21 7,21L12,21C12.546,21.007 12.993,21.454 13,22C13,22.549 13.451,23 14,23C14.549,23 15,22.549 15,22C14.998,20.355 13.645,19.002 12,19ZM14,9C14.549,9 15,8.549 15,8C15,7.451 14.549,7 14,7C13.451,7 13,7.451 13,8C13,8.549 13.451,9 14,9ZM18,9L20,9C21.645,8.998 22.998,7.645 23,6C23,5.451 22.549,5 22,5C21.451,5 21,5.451 21,6C20.993,6.546 20.546,6.993 20,7L18,7C17.451,7 17,7.451 17,8C17,8.549 17.451,9 18,9ZM20,15L17.839,15C18.413,14.102 18.802,13.099 18.985,12.05C18.995,11.994 19,11.937 19,11.881C19,11.332 18.548,10.88 17.999,10.88C17.891,10.88 17.783,10.898 17.68,10.933C17.061,11.143 16.413,11.25 15.76,11.25C12.44,11.249 9.707,8.52 9.7,5.2C9.707,4.849 9.74,4.498 9.798,4.151C9.806,4.101 9.809,4.05 9.809,3.999C9.809,3.451 9.358,3 8.81,3C8.701,3 8.593,3.018 8.49,3.053C5.22,4.144 3,7.224 3,10.672C3,12.206 3.439,13.708 4.266,15L3,15C2.451,15 2,15.451 2,16C2,16.549 2.451,17 3,17L8,17C8.549,17 9,16.549 9,16C9,15.451 8.549,15 8,15L6.831,15C5.661,13.865 5,12.303 5,10.674C5,8.648 6.021,6.754 7.712,5.64C7.952,9.884 11.508,13.248 15.76,13.25C16.023,13.25 16.287,13.237 16.549,13.211C16.238,13.88 15.807,14.487 15.277,15L12,15C11.451,15 11,15.451 11,16C11,16.549 11.451,17 12,17L20,17C20.549,17 21,17.451 21,18C21,18.549 20.549,19 20,19C19.451,19 19,19.451 19,20C19,20.549 19.451,21 20,21C21.646,21 23,19.646 23,18C23,16.354 21.646,15 20,15ZM2.62,19.08C2.499,19.131 2.387,19.202 2.29,19.29C2.105,19.48 2.001,19.735 2,20C2,20.003 2,20.007 2,20.01C2,20.553 2.447,21 2.99,21C3.124,21 3.257,20.973 3.38,20.92C3.501,20.869 3.613,20.798 3.71,20.71C3.898,20.522 4.002,20.266 4,20C3.996,19.735 3.892,19.482 3.71,19.29C3.423,19.007 2.992,18.924 2.62,19.08Z" style="fill:white;fill-rule:nonzero;"/>
</svg>
