<?xml version="1.0" encoding="UTF-8" standalone="no"?>
<!DOCTYPE svg PUBLIC "-//W3C//DTD SVG 1.1//EN" "http://www.w3.org/Graphics/SVG/1.1/DTD/svg11.dtd">
<svg width="100%" height="100%" viewBox="0 0 24 24" version="1.1" xmlns="http://www.w3.org/2000/svg" xmlns:xlink="http://www.w3.org/1999/xlink" xml:space="preserve" xmlns:serif="http://www.serif.com/" style="fill-rule:evenodd;clip-rule:evenodd;stroke-linejoin:round;stroke-miterlimit:2;">
    <path d="M21.07,16.83L19,14.71C18.091,13.846 16.741,13.62 15.6,14.14L14.7,13.24C15.606,12.03 16.096,10.558 16.096,9.046C16.096,5.206 12.936,2.046 9.096,2.046C5.256,2.046 2.096,5.206 2.096,9.046C2.096,12.886 5.256,16.046 9.096,16.046C10.608,16.046 12.08,15.556 13.29,14.65L14.18,15.54C13.597,16.685 13.811,18.082 14.71,19L16.83,21.12C17.993,22.282 19.907,22.282 21.07,21.12C21.647,20.556 21.973,19.782 21.973,18.975C21.973,18.168 21.647,17.394 21.07,16.83ZM12.59,12.59C11.653,13.525 10.382,14.05 9.059,14.05C6.316,14.05 4.059,11.793 4.059,9.05C4.059,6.307 6.316,4.05 9.059,4.05C10.382,4.05 11.653,4.575 12.59,5.51C13.53,6.448 14.059,7.722 14.059,9.05C14.059,10.378 13.53,11.652 12.59,12.59ZM19.66,19.66C19.472,19.849 19.217,19.956 18.95,19.956C18.683,19.956 18.428,19.849 18.24,19.66L16.12,17.54C15.931,17.352 15.824,17.097 15.824,16.83C15.824,16.563 15.931,16.308 16.12,16.12C16.308,15.931 16.563,15.824 16.83,15.824C17.097,15.824 17.352,15.931 17.54,16.12L19.66,18.24C19.849,18.428 19.956,18.683 19.956,18.95C19.956,19.217 19.849,19.472 19.66,19.66Z" style="fill:rgb(125,190,250);fill-rule:nonzero;"/>
</svg>
