<?xml version="1.0" encoding="UTF-8" standalone="no"?>
<!DOCTYPE svg PUBLIC "-//W3C//DTD SVG 1.1//EN" "http://www.w3.org/Graphics/SVG/1.1/DTD/svg11.dtd">
<svg width="100%" height="100%" viewBox="0 0 24 24" version="1.1" xmlns="http://www.w3.org/2000/svg" xmlns:xlink="http://www.w3.org/1999/xlink" xml:space="preserve" xmlns:serif="http://www.serif.com/" style="fill-rule:evenodd;clip-rule:evenodd;stroke-linejoin:round;stroke-miterlimit:2;">
    <path d="M22.991,3.95C22.991,3.95 22.991,3.95 22.991,3.95C22.991,3.401 22.54,2.95 21.992,2.95C21.812,2.95 21.635,2.999 21.48,3.091C20.895,3.439 20.265,3.706 19.607,3.884C18.669,3.078 17.47,2.637 16.233,2.642C13.429,2.645 11.1,4.902 11.01,7.705C8.335,7.278 5.908,5.881 4.196,3.781C3.987,3.527 3.667,3.391 3.339,3.416C3.011,3.443 2.717,3.63 2.554,3.916C1.718,5.375 1.628,7.149 2.312,8.685L2.31,8.687C2.002,8.876 1.814,9.213 1.814,9.575C1.813,9.722 1.821,9.869 1.841,10.015C1.943,11.273 2.501,12.451 3.409,13.327C3.285,13.564 3.261,13.842 3.343,14.097C3.739,15.33 4.582,16.373 5.705,17.019C4.563,17.46 3.33,17.614 2.115,17.467C2.074,17.462 2.032,17.459 1.991,17.459C1.442,17.459 0.991,17.91 0.991,18.459C0.991,18.799 1.164,19.116 1.45,19.3C3.54,20.646 5.974,21.362 8.46,21.361C14.239,21.426 19.378,17.566 20.925,11.998C21.278,10.815 21.458,9.586 21.46,8.352C21.46,8.286 21.46,8.219 21.459,8.151C22.513,7.014 23.066,5.499 22.991,3.95ZM19.685,7.162C19.519,7.357 19.436,7.609 19.451,7.864C19.461,8.029 19.46,8.195 19.46,8.352C19.458,9.395 19.305,10.433 19.006,11.433C17.741,16.174 13.366,19.463 8.46,19.361C7.601,19.362 6.745,19.261 5.909,19.061C6.975,18.717 7.971,18.188 8.852,17.497C9.092,17.308 9.233,17.018 9.233,16.711C9.233,16.169 8.792,15.72 8.25,15.711C7.419,15.698 6.625,15.363 6.036,14.776C6.186,14.748 6.334,14.713 6.481,14.671C6.91,14.549 7.208,14.154 7.208,13.709C7.208,13.233 6.868,12.82 6.401,12.728C5.424,12.535 4.591,11.896 4.151,11.002C4.332,11.027 4.514,11.042 4.696,11.048C5.14,11.055 5.539,10.772 5.68,10.352C5.815,9.927 5.651,9.461 5.279,9.215C4.387,8.62 3.851,7.615 3.855,6.542C3.855,6.476 3.857,6.409 3.861,6.344C6.102,8.434 9.01,9.666 12.07,9.823C12.383,9.836 12.685,9.703 12.888,9.465C13.089,9.224 13.165,8.902 13.094,8.597C13.037,8.358 13.007,8.114 13.007,7.868C13.009,6.099 14.464,4.643 16.233,4.642C17.123,4.639 17.974,5.01 18.578,5.662C18.812,5.914 19.162,6.027 19.499,5.96C19.91,5.88 20.315,5.772 20.711,5.638C20.441,6.191 20.095,6.704 19.685,7.162Z" style="fill:white;fill-rule:nonzero;"/>
</svg>
