<?xml version="1.0" encoding="UTF-8" standalone="no"?>
<!DOCTYPE svg PUBLIC "-//W3C//DTD SVG 1.1//EN" "http://www.w3.org/Graphics/SVG/1.1/DTD/svg11.dtd">
<svg width="100%" height="100%" viewBox="0 0 24 24" version="1.1" xmlns="http://www.w3.org/2000/svg" xmlns:xlink="http://www.w3.org/1999/xlink" xml:space="preserve" xmlns:serif="http://www.serif.com/" style="fill-rule:evenodd;clip-rule:evenodd;stroke-linejoin:round;stroke-miterlimit:2;">
    <path d="M15.71,12.71C17.155,11.573 18,9.833 18,7.995C18,4.703 15.292,1.995 12,1.995C8.708,1.995 6,4.703 6,7.995C6,9.833 6.845,11.573 8.29,12.71C4.872,14.079 2.476,17.23 2.07,20.89C2.066,20.927 2.064,20.963 2.064,21C2.064,21.552 2.518,22.006 3.07,22.006C3.581,22.006 4.014,21.617 4.07,21.11C4.522,17.083 7.967,14.003 12.02,14.003C16.073,14.003 19.518,17.083 19.97,21.11C20.026,21.616 20.461,22.003 20.97,22L21.08,22C21.622,21.938 22.018,21.443 21.96,20.9C21.552,17.23 19.143,14.072 15.71,12.71ZM12,12C9.806,12 8,10.194 8,8C8,5.806 9.806,4 12,4C14.194,4 16,5.806 16,8C16,10.194 14.194,12 12,12Z" style="fill:rgb(125,190,250);fill-rule:nonzero;"/>
</svg>
